<?xml version="1.0" encoding="UTF-8"?>
<svg xmlns="http://www.w3.org/2000/svg" xmlns:xlink="http://www.w3.org/1999/xlink" width="12pt" height="12pt" viewBox="0 0 12 12" version="1.1">
<g id="surface1">
<path style=" stroke:none;fill-rule:nonzero;fill:rgb(0%,0%,0%);fill-opacity:1;" d="M 3.09375 4.359375 C 3.3125 4.140625 3.558594 3.960938 3.816406 3.816406 C 5.257812 3.019531 7.109375 3.445312 8.039062 4.851562 L 6.914062 5.972656 C 6.59375 5.238281 5.792969 4.820312 5 5 C 4.699219 5.066406 4.414062 5.214844 4.183594 5.449219 L 2.03125 7.601562 C 1.375 8.253906 1.375 9.316406 2.03125 9.96875 C 2.683594 10.625 3.746094 10.625 4.398438 9.96875 L 5.0625 9.308594 C 5.667969 9.546875 6.3125 9.640625 6.953125 9.59375 L 5.488281 11.058594 C 4.234375 12.316406 2.199219 12.316406 0.941406 11.058594 C -0.3125 9.804688 -0.3125 7.769531 0.941406 6.511719 Z M 6.511719 0.941406 L 5.046875 2.40625 C 5.6875 2.359375 6.332031 2.453125 6.9375 2.691406 L 7.601562 2.03125 C 8.253906 1.375 9.316406 1.375 9.96875 2.03125 C 10.625 2.683594 10.625 3.746094 9.96875 4.398438 L 7.816406 6.550781 C 7.160156 7.207031 6.097656 7.203125 5.449219 6.550781 C 5.296875 6.402344 5.164062 6.210938 5.085938 6.027344 L 3.960938 7.148438 C 4.078125 7.328125 4.203125 7.484375 4.359375 7.640625 C 4.765625 8.046875 5.28125 8.347656 5.878906 8.492188 C 6.648438 8.679688 7.472656 8.574219 8.183594 8.183594 C 8.441406 8.039062 8.6875 7.859375 8.90625 7.640625 L 11.058594 5.488281 C 12.3125 4.234375 12.3125 2.195312 11.058594 0.941406 C 9.800781 -0.3125 7.765625 -0.3125 6.511719 0.941406 Z M 6.511719 0.941406 "/>
</g>
</svg>
