<?xml version="1.0" encoding="UTF-8"?>
<svg xmlns="http://www.w3.org/2000/svg" xmlns:xlink="http://www.w3.org/1999/xlink" width="10pt" height="10pt" viewBox="0 0 10 10" version="1.1">
<g id="surface1">
<path style=" stroke:none;fill-rule:nonzero;fill:rgb(100%,100%,100%);fill-opacity:1;" d="M 2.578125 3.632812 C 2.761719 3.449219 2.964844 3.300781 3.179688 3.179688 C 4.382812 2.515625 5.925781 2.871094 6.699219 4.042969 L 5.761719 4.976562 C 5.496094 4.363281 4.828125 4.015625 4.167969 4.167969 C 3.917969 4.222656 3.679688 4.347656 3.488281 4.542969 L 1.691406 6.335938 C 1.144531 6.878906 1.144531 7.761719 1.691406 8.308594 C 2.238281 8.855469 3.121094 8.855469 3.664062 8.308594 L 4.21875 7.757812 C 4.722656 7.957031 5.261719 8.035156 5.792969 7.996094 L 4.574219 9.214844 C 3.527344 10.261719 1.832031 10.261719 0.785156 9.214844 C -0.261719 8.171875 -0.261719 6.472656 0.785156 5.425781 Z M 5.425781 0.785156 L 4.207031 2.003906 C 4.738281 1.964844 5.277344 2.042969 5.78125 2.242188 L 6.335938 1.691406 C 6.878906 1.144531 7.761719 1.144531 8.308594 1.691406 C 8.855469 2.238281 8.855469 3.121094 8.308594 3.664062 L 6.511719 5.457031 C 5.964844 6.003906 5.082031 6.003906 4.542969 5.457031 C 4.414062 5.335938 4.304688 5.175781 4.238281 5.023438 L 3.300781 5.957031 C 3.398438 6.105469 3.503906 6.238281 3.632812 6.367188 C 3.972656 6.707031 4.402344 6.957031 4.898438 7.078125 C 5.539062 7.234375 6.226562 7.144531 6.820312 6.820312 C 7.035156 6.699219 7.238281 6.550781 7.421875 6.367188 L 9.214844 4.574219 C 10.261719 3.527344 10.261719 1.828125 9.214844 0.785156 C 8.167969 -0.261719 6.472656 -0.261719 5.425781 0.785156 Z M 5.425781 0.785156 "/>
</g>
</svg>
