<?xml version="1.0" encoding="UTF-8"?>
<svg xmlns="http://www.w3.org/2000/svg" xmlns:xlink="http://www.w3.org/1999/xlink" width="12pt" height="12pt" viewBox="0 0 12 12" version="1.1">
<g id="surface1">
<path style=" stroke:none;fill-rule:nonzero;fill:rgb(0%,40%,60%);fill-opacity:1;" d="M 0 0.871094 C 0 0.402344 0.390625 0.0234375 0.875 0.0234375 L 10.964844 0.0234375 C 11.449219 0.0234375 11.84375 0.402344 11.84375 0.871094 L 11.84375 10.972656 C 11.84375 11.441406 11.449219 11.816406 10.964844 11.816406 L 0.875 11.816406 C 0.390625 11.816406 0 11.441406 0 10.972656 Z M 0 0.871094 "/>
<path style=" stroke:none;fill-rule:nonzero;fill:rgb(100%,100%,100%);fill-opacity:1;" d="M 3.597656 9.894531 L 3.597656 4.585938 L 1.824219 4.585938 L 1.824219 9.894531 Z M 2.714844 3.859375 C 3.332031 3.859375 3.714844 3.449219 3.714844 2.941406 C 3.703125 2.421875 3.332031 2.023438 2.726562 2.023438 C 2.117188 2.023438 1.722656 2.421875 1.722656 2.941406 C 1.722656 3.449219 2.105469 3.859375 2.703125 3.859375 Z M 4.578125 9.894531 L 6.351562 9.894531 L 6.351562 6.929688 C 6.351562 6.773438 6.363281 6.613281 6.410156 6.496094 C 6.539062 6.179688 6.832031 5.851562 7.316406 5.851562 C 7.960938 5.851562 8.214844 6.339844 8.214844 7.054688 L 8.214844 9.894531 L 9.988281 9.894531 L 9.988281 6.847656 C 9.988281 5.21875 9.117188 4.460938 7.945312 4.460938 C 6.996094 4.460938 6.570312 4.992188 6.339844 5.355469 L 6.351562 5.355469 L 6.351562 4.585938 L 4.578125 4.585938 C 4.605469 5.082031 4.578125 9.894531 4.578125 9.894531 Z M 4.578125 9.894531 "/>
</g>
</svg>
