<?xml version="1.0" standalone="no"?>
<!DOCTYPE svg PUBLIC "-//W3C//DTD SVG 20010904//EN"
 "http://www.w3.org/TR/2001/REC-SVG-20010904/DTD/svg10.dtd">
<svg version="1.0" xmlns="http://www.w3.org/2000/svg"
 width="512.000000pt" height="512.000000pt" viewBox="0 0 512.000000 512.000000"
 preserveAspectRatio="xMidYMid meet">
<metadata>
Created by potrace 1.14, written by Peter Selinger 2001-2017
</metadata>
<g transform="translate(0.000000,512.000000) scale(0.100000,-0.100000)"
fill="#000000" stroke="none">
<path d="M2379 5116 c-2 -2 -40 -6 -83 -10 -44 -4 -82 -8 -85 -10 -3 -2 -31
-7 -61 -11 -30 -3 -83 -13 -116 -20 -34 -8 -73 -16 -85 -19 -63 -12 -215 -61
-221 -70 -4 -6 -8 -8 -8 -3 0 4 -15 1 -34 -7 -19 -8 -37 -12 -40 -8 -3 3 -6 0
-6 -6 0 -7 -8 -12 -18 -12 -10 0 -22 -3 -26 -7 -4 -5 -11 -8 -14 -8 -18 -2
-52 -17 -52 -24 0 -4 -6 -8 -12 -8 -43 0 -342 -172 -482 -277 -147 -111 -376
-322 -376 -347 0 -6 -4 -7 -10 -4 -5 3 -10 2 -10 -3 0 -5 -9 -20 -21 -33 -11
-13 -29 -34 -40 -46 -62 -74 -219 -302 -219 -321 0 -6 -4 -12 -9 -14 -11 -4
-117 -210 -113 -220 1 -5 -2 -8 -8 -8 -6 0 -9 -3 -8 -7 1 -5 -4 -20 -10 -35
-7 -16 -17 -40 -24 -55 -6 -16 -11 -31 -10 -35 1 -5 -3 -8 -10 -8 -6 0 -9 -3
-6 -6 3 -3 -5 -33 -18 -67 -13 -33 -24 -66 -24 -73 0 -7 -5 -25 -12 -41 -12
-30 -14 -36 -21 -73 -3 -14 -8 -32 -11 -40 -3 -8 -7 -26 -10 -40 -2 -14 -11
-59 -20 -100 -15 -73 -17 -90 -35 -235 -9 -70 -7 -482 2 -520 3 -12 8 -48 12
-80 4 -33 9 -67 10 -75 6 -29 37 -175 41 -190 21 -86 38 -146 43 -150 3 -3 6
-9 7 -15 2 -22 28 -95 33 -95 4 0 7 -9 8 -19 2 -21 43 -120 97 -231 94 -194
223 -388 366 -551 82 -94 262 -269 277 -269 7 0 13 -4 13 -9 0 -14 180 -147
285 -212 121 -75 262 -149 269 -142 3 4 6 1 6 -5 0 -7 3 -11 8 -10 4 1 27 -8
52 -19 66 -31 181 -74 209 -80 14 -2 29 -7 35 -11 6 -3 16 -8 21 -9 94 -26
244 -63 268 -66 18 -3 46 -8 62 -11 120 -23 222 -30 420 -31 210 0 299 7 450
35 28 5 61 11 75 14 69 11 210 50 210 58 0 5 4 7 9 3 10 -6 191 56 276 95 326
147 582 323 813 560 41 41 90 95 110 120 20 25 43 49 50 53 6 4 12 15 12 24 0
9 3 14 6 10 7 -7 29 23 128 173 91 136 199 337 190 352 -3 4 -1 8 5 8 5 0 13
10 17 23 3 12 15 40 24 62 32 72 70 185 62 185 -4 0 -2 4 4 8 11 7 40 107 51
172 3 19 10 43 15 53 5 10 7 21 4 24 -2 3 -1 15 3 27 8 19 14 53 27 146 28
205 24 651 -6 730 -1 3 -2 9 -1 13 1 5 -6 43 -15 85 -8 42 -18 88 -20 102 -3
14 -14 57 -26 95 -22 77 -22 76 -33 123 -4 17 -10 32 -14 32 -4 0 -8 12 -9 27
-1 15 -8 30 -15 35 -6 4 -9 8 -5 8 4 0 -1 19 -12 43 -10 23 -26 60 -36 82 -9
22 -18 42 -18 45 -2 8 -81 161 -102 199 -52 92 -189 292 -239 348 -5 6 -30 35
-55 63 -216 252 -489 461 -800 615 -41 20 -88 44 -105 53 -16 9 -30 14 -30 12
0 -2 -16 4 -35 13 -19 8 -64 25 -100 37 -36 12 -74 26 -85 30 -54 23 -314 82
-422 95 -26 4 -59 9 -73 11 -29 6 -456 15 -461 10z"/>
</g>
</svg>
